Coordinates
version=1
nRows=16
nColumns=36
inDegrees=yes

Units are S.I. units (second, meters, Newtons, ...)
If the header above contains a line with 'inDegrees', this indicates whether rotational values are in degrees (yes) or radians (no).

endheader
time	pelvis_tilt	pelvis_list	pelvis_rotation	pelvis_tx	pelvis_ty	pelvis_tz	hip_flexion_r	hip_adduction_r	hip_rotation_r	knee_angle_r	knee_angle_r_beta	ankle_angle_r	subtalar_angle_r	mtp_angle_r	hip_flexion_l	hip_adduction_l	hip_rotation_l	knee_angle_l	knee_angle_l_beta	ankle_angle_l	subtalar_angle_l	mtp_angle_l	lumbar_extension	lumbar_bending	lumbar_rotation	arm_flex_r	arm_add_r	arm_rot_r	elbow_flex_r	pro_sup_r	arm_flex_l	arm_add_l	arm_rot_l	elbow_flex_l	pro_sup_l
      0.33000000	     -4.40043027	     -0.12921254	     -0.43490063	      0.30973013	      0.94391096	     -0.25720489	      4.77257314	      4.96928057	      0.71915854	      8.75389141	      0.15278423	      7.71438957	     -4.57815800	     -7.40298899	     23.22503933	     -3.05122863	     -0.98698532	     48.99976885	      0.85520730	     -3.47189535	    -12.00489665	     -7.40298899	      2.27339939	      0.86270731	      1.74729118	      1.37978485	    -14.96717992	      5.03698805	     22.56442024	     84.50272103	     -3.18688038	    -11.88727486	      4.82787179	     17.51407234	     78.62744556
      0.34000000	     -4.51095257	     -0.17102300	     -0.99108276	      0.31930337	      0.94265573	     -0.25594175	      4.00481083	      5.05469868	      0.98070557	      8.41817039	      0.14692479	      8.01920881	     -4.31819273	     -7.40376220	     24.32421243	     -3.33459897	     -1.61881639	     46.86570931	      0.81796093	     -2.56896060	    -12.30472390	     -7.40376220	      2.32834148	      0.99557610	      2.39375774	      2.35099863	    -15.36636753	      5.00228365	     23.31605271	     84.44330035	     -3.98112602	    -11.74226274	      4.78724084	     17.09919036	     78.66495813
      0.35000000	     -4.40765687	     -0.26654233	     -1.58951140	      0.32867775	      0.94115201	     -0.25461202	      3.00498779	      5.18331844	      1.20828211	      8.10893904	      0.14152769	      8.71447062	     -3.67110847	     -7.40906976	     25.12062626	     -3.71965477	     -2.36236547	     44.60795725	      0.77855573	     -1.53697934	    -11.95390331	     -7.40906976	      1.94344399	      1.19951323	      3.07272838	      2.95800912	    -16.05553807	      5.47084808	     25.63808607	     84.11402489	     -4.68026016	    -11.54374484	      4.09657568	     16.68504063	     78.72762346
      0.36000000	     -4.39523148	     -0.44463942	     -2.19746196	      0.33806159	      0.93913177	     -0.25332199	      2.10796532	      5.39377280	      1.53669970	      7.84641658	      0.13694580	      9.31407827	     -3.27716551	     -7.41347777	     25.98425119	     -4.16437291	     -3.04025138	     42.31295250	      0.73850034	     -0.68535133	    -11.63513141	     -7.41347777	      1.75277447	      1.52031218	      3.65830089	      3.87327612	    -16.63216186	      5.81326710	     27.21994430	     83.80207932	     -5.49774883	    -11.31802492	      3.48006220	     16.30541672	     78.87415062
      0.37000000	     -4.48620296	     -0.65961524	     -2.86080050	      0.34761694	      0.93674460	     -0.25201105	      1.33455746	      5.64434142	      2.02437250	      7.65688049	      0.13363777	      9.94840030	     -3.01471256	     -7.41447033	     26.90637245	     -4.64760459	     -3.70295642	     39.97017943	      0.69761123	     -0.15636852	    -11.40048495	     -7.41447033	      1.73238369	      1.90832994	      4.22161647	      5.04050700	    -17.05437959	      5.85632703	     28.16093180	     83.72446381	     -6.36668694	    -11.13338367	      3.31679987	     15.88363725	     78.94209543
      0.38000000	     -4.46588508	     -0.91825435	     -3.48144627	      0.35758401	      0.93438461	     -0.25076616	      0.40331109	      5.92621323	      2.47371995	      7.45992531	      0.13020026	     10.64859620	     -2.70292217	     -7.41598809	     27.63879039	     -5.16147448	     -4.36397033	     37.57900873	      0.65587743	      0.45735509	    -10.72434915	     -7.41598809	      1.53784560	      2.34388937	      4.67275772	      6.15666047	    -17.53673248	      6.14860499	     29.56693927	     83.63361845	     -7.23699866	    -10.90692865	      2.94312032	     15.49266463	     78.99559906
      0.39000000	     -4.40323278	     -1.24977542	     -4.06102424	      0.36805744	      0.93205864	     -0.24984999	     -0.63501096	      6.25292397	      2.91694344	      7.19597853	      0.12559352	     11.25673611	     -2.39043222	     -7.43946653	     28.28238067	     -5.68010767	     -4.89420136	     35.19211096	      0.61421821	      0.97811392	     -9.85194713	     -7.43946653	      1.21079602	      2.85136983	      4.38507498	      7.85006190	    -18.23437642	      9.27216297	     30.87349940	     81.35780090	     -8.75489109	    -10.22941151	     -1.82407983	     15.85164279	     80.55092764
      0.40000000	     -4.46368714	     -1.53774210	     -4.67832604	      0.37914972	      0.92966324	     -0.24897442	     -1.50603860	      6.53493874	      3.39003058	      7.05733642	      0.12317376	     11.87825595	     -2.23493494	     -7.44033397	     28.95054244	     -6.15890091	     -5.46769769	     32.73264016	      0.57129234	      1.37088932	     -9.16089956	     -7.44033397	      1.12600121	      3.34810922	      4.81317734	      8.97907777	    -18.56709150	      9.36391085	     31.91411986	     81.35202166	     -9.64471231	     -9.97924049	     -1.82394374	     15.40204918	     80.74712608
      0.41000000	     -4.44276655	     -1.86797049	     -5.21428730	      0.39083250	      0.92743469	     -0.24839521	     -2.53369217	      6.83717557	      3.84920348	      6.82603920	      0.11913686	     12.38198006	     -2.07532392	     -7.44215890	     29.46539049	     -6.62287325	     -5.98438867	     30.27127243	      0.52833337	      1.92824558	     -7.97175842	     -7.44215890	      0.87966327	      3.84980983	      5.21705885	      9.86619567	    -19.02847951	      9.86038301	     33.45682552	     81.35087478	    -10.50173575	     -9.68874569	     -2.21000770	     15.02744292	     80.95871468
      0.42000000	     -4.58438014	     -2.19316646	     -5.65945534	      0.40302450	      0.92507729	     -0.24829114	     -3.38798943	      7.12161753	      4.21636453	      6.62727834	      0.11566783	     12.78687357	     -2.00578497	     -7.44199109	     30.08757850	     -6.92819382	     -6.14328609	     27.75533253	      0.48442194	      2.09943194	     -7.45825415	     -7.44199109	      1.02192790	      4.41359899	      5.71103807	     10.75914778	    -19.31890771	      9.85614606	     33.97846518	     81.44145158	    -11.30796395	     -9.31183294	     -2.29566264	     14.43986133	     81.10290351
      0.43000000	     -4.67951464	     -2.39329150	     -6.26880086	      0.41557795	      0.92285257	     -0.24786166	     -4.31377929	      7.25786770	      4.85180537	      6.39795756	      0.11166542	     13.36736852	     -1.83300627	     -7.44243148	     30.49542420	     -7.27178742	     -6.87531320	     25.16748315	      0.43925545	      2.63788118	     -5.96340163	     -7.44243148	      0.90620573	      4.70724856	      5.91426535	     11.50482295	    -19.47703632	     10.14408789	     35.34766638	     81.53217601	    -12.32480530	     -8.97371083	     -2.70252323	     13.80425913	     81.21626401
      0.44000000	     -4.81428887	     -2.72613024	     -6.58768596	      0.42828240	      0.92034710	     -0.24819958	     -5.24083543	      7.50650282	      5.11304553	      6.09433876	      0.10636628	     13.64387275	     -1.78211394	     -7.44216163	     30.99514647	     -7.43436463	     -6.74708256	     22.68447262	      0.39591874	      3.08799778	     -5.22488128	     -7.44216163	      1.04980483	      5.22963609	      6.33179892	     12.08573777	    -19.81926106	     10.18055827	     35.82614199	     81.65938915	    -13.14252828	     -8.53132202	     -2.88158782	     13.24589859	     81.34711604
      0.45000000	     -4.85987183	     -2.94025101	     -7.03173593	      0.44105196	      0.91778423	     -0.24805078	     -6.26727562	      7.60803720	      5.62011095	      5.77877243	      0.10085861	     14.04740125	     -1.56020712	     -7.44438760	     31.25269606	     -7.69300269	     -7.56646594	     20.20945178	      0.35272147	      4.28235391	     -2.47917924	     -7.44438760	      0.84159079	      5.51461212	      6.64890685	     12.13922520	    -20.38483630	     10.82955996	     38.27845490	     81.66290037	    -14.24870789	     -8.01142581	     -4.56460287	     13.16626628	     81.23593579
      0.46000000	     -5.06804471	     -3.15541609	     -7.35103311	      0.45372567	      0.91461328	     -0.24824818	     -7.09692945	      7.70180355	      5.96784156	      5.49331464	      0.09587643	     14.29972934	     -1.48074120	     -7.44369086	     31.67965115	     -7.67888107	     -7.30798313	     17.78424679	      0.31039366	      4.63841323	     -1.91776738	     -7.44369086	      1.04973219	      5.90120861	      7.00084548	     12.56243747	    -20.59733138	     10.76057522	     38.44190570	     81.84679687	    -15.10397930	     -7.52047760	     -4.70934944	     12.34091820	     81.44589738
      0.47000000	     -5.31630801	     -3.24304403	     -7.76439237	      0.46638691	      0.91105433	     -0.24785968	     -7.85479777	      7.65681195	      6.38506180	      5.26280909	      0.09185335	     14.81340061	     -1.17981915	     -7.45022741	     32.06029811	     -7.73422405	     -7.95392077	     15.51721820	      0.27082655	      5.34018148	      0.30405535	     -7.45022741	      1.15717709	      6.00956108	      7.33469011	     12.27339371	    -20.93810246	     10.38260268	     40.72071963	     81.38061157	    -16.28088020	     -6.80559365	     -8.48910957	     12.56773883	     81.35534301
      0.48000000	     -5.66865526	     -3.34364359	     -8.09172642	      0.47902549	      0.90715283	     -0.24733532	     -8.48434467	      7.63100398	      6.73744810	      5.06264825	      0.08835988	     15.12783514	     -0.87875968	     -7.45088453	     32.56685990	     -7.71708231	     -8.09042261	     13.53926864	      0.23630482	      5.94406186	      1.88282419	     -7.45088453	      1.60274670	      6.19369088	      7.43918981	     12.41823898	    -20.97259434	     10.34865633	     41.27040612	     81.50064962	    -17.36628057	     -6.34410305	     -8.81303785	     11.86214227	     81.68277700
